<mxfile host="65bd71144e">
    <diagram id="ftwKGmKvUH5sL6i6RtWt" name="ページ1">
        <mxGraphModel dx="3720" dy="3144" grid="1" gridSize="10" guides="1" tooltips="1" connect="1" arrows="1" fold="1" page="1" pageScale="1" pageWidth="827" pageHeight="1169" math="0" shadow="0">
            <root>
                <mxCell id="0"/>
                <mxCell id="1" parent="0"/>
                <mxCell id="24" value="" style="rounded=0;whiteSpace=wrap;html=1;" parent="1" vertex="1">
                    <mxGeometry x="-390" y="80" width="1340" height="1890" as="geometry"/>
                </mxCell>
                <mxCell id="75" value="stock -1&lt;br&gt;slot price = slotprice - drink-price&lt;br&gt;sales_amount += drink_price&lt;br&gt;purchased_drink +" style="shape=process;whiteSpace=wrap;html=1;backgroundOutline=1;" parent="1" vertex="1">
                    <mxGeometry x="357" y="1495" width="260" height="70" as="geometry"/>
                </mxCell>
                <mxCell id="56" value="" style="rounded=0;whiteSpace=wrap;html=1;" parent="1" vertex="1">
                    <mxGeometry x="360" y="-550" width="810" height="560" as="geometry"/>
                </mxCell>
                <mxCell id="23" value="puts &quot;いらっしゃいませ&quot;&lt;br&gt;[情報表示]&lt;br&gt;drink_list&lt;br&gt;@slot_money&lt;br&gt;sales_amount&lt;br&gt;@purchased_drink" style="rounded=0;whiteSpace=wrap;html=1;" parent="1" vertex="1">
                    <mxGeometry x="695" y="-520" width="170" height="100" as="geometry"/>
                </mxCell>
                <mxCell id="2" value="お金投入" style="rounded=0;whiteSpace=wrap;html=1;" parent="1" vertex="1">
                    <mxGeometry x="340" y="370" width="120" height="60" as="geometry"/>
                </mxCell>
                <mxCell id="42" style="edgeStyle=none;html=1;exitX=0.5;exitY=1;exitDx=0;exitDy=0;entryX=0.5;entryY=0;entryDx=0;entryDy=0;" parent="1" source="83" target="3" edge="1">
                    <mxGeometry relative="1" as="geometry">
                        <mxPoint x="247.5" y="1350" as="sourcePoint"/>
                        <mxPoint x="130" y="1430" as="targetPoint"/>
                    </mxGeometry>
                </mxCell>
                <mxCell id="3" value="買いたいドリンクを選択する" style="rounded=0;whiteSpace=wrap;html=1;" parent="1" vertex="1">
                    <mxGeometry x="190" y="1400" width="120" height="60" as="geometry"/>
                </mxCell>
                <mxCell id="4" value="選択したドリンクが出てくる" style="rounded=0;whiteSpace=wrap;html=1;" parent="1" vertex="1">
                    <mxGeometry x="190" y="1500" width="120" height="60" as="geometry"/>
                </mxCell>
                <mxCell id="5" value="投入金額で購入出来るドリンクがありません" style="rounded=0;whiteSpace=wrap;html=1;" parent="1" vertex="1">
                    <mxGeometry x="427" y="1055" width="143" height="65" as="geometry"/>
                </mxCell>
                <mxCell id="7" value="返金 = 投入金額" style="rounded=0;whiteSpace=wrap;html=1;" parent="1" vertex="1">
                    <mxGeometry x="-70" y="510" width="120" height="60" as="geometry"/>
                </mxCell>
                <mxCell id="11" value="ドリンクのストックが減る" style="rounded=0;whiteSpace=wrap;html=1;" parent="1" vertex="1">
                    <mxGeometry x="390" y="1440" width="120" height="60" as="geometry"/>
                </mxCell>
                <mxCell id="12" value="ドリンク値段分、投入金額が減る" style="rounded=0;whiteSpace=wrap;html=1;" parent="1" vertex="1">
                    <mxGeometry x="510" y="1440" width="120" height="60" as="geometry"/>
                </mxCell>
                <mxCell id="22" value="" style="endArrow=classic;html=1;exitX=0.5;exitY=1;exitDx=0;exitDy=0;entryX=0.5;entryY=0;entryDx=0;entryDy=0;" parent="1" source="54" target="83" edge="1">
                    <mxGeometry width="50" height="50" relative="1" as="geometry">
                        <mxPoint x="420" y="910" as="sourcePoint"/>
                        <mxPoint x="247.5" y="1190" as="targetPoint"/>
                    </mxGeometry>
                </mxCell>
                <mxCell id="25" value="" style="rounded=0;whiteSpace=wrap;html=1;" parent="1" vertex="1">
                    <mxGeometry x="1000" y="94.5" width="990" height="1211" as="geometry"/>
                </mxCell>
                <mxCell id="28" value="" style="endArrow=classic;html=1;exitX=1;exitY=0.5;exitDx=0;exitDy=0;entryX=0.5;entryY=0;entryDx=0;entryDy=0;" parent="1" source="136" target="99" edge="1">
                    <mxGeometry width="50" height="50" relative="1" as="geometry">
                        <mxPoint x="820" y="-150" as="sourcePoint"/>
                        <mxPoint x="860" y="-240" as="targetPoint"/>
                        <Array as="points">
                            <mxPoint x="1290" y="-270"/>
                        </Array>
                    </mxGeometry>
                </mxCell>
                <mxCell id="29" value="一般ユーザー" style="text;html=1;strokeColor=none;fillColor=none;align=center;verticalAlign=middle;whiteSpace=wrap;rounded=0;" parent="1" vertex="1">
                    <mxGeometry x="-25" y="94.5" width="130" height="40" as="geometry"/>
                </mxCell>
                <mxCell id="31" value="お金再度入れ直すか？" style="rhombus;whiteSpace=wrap;html=1;" parent="1" vertex="1">
                    <mxGeometry x="565" y="340" width="120" height="120" as="geometry"/>
                </mxCell>
                <mxCell id="32" value="" style="endArrow=classic;html=1;exitX=0;exitY=0.5;exitDx=0;exitDy=0;entryX=1;entryY=0.5;entryDx=0;entryDy=0;" parent="1" source="31" edge="1" target="2">
                    <mxGeometry width="50" height="50" relative="1" as="geometry">
                        <mxPoint x="680" y="-170" as="sourcePoint"/>
                        <mxPoint x="430" y="320" as="targetPoint"/>
                        <Array as="points"/>
                    </mxGeometry>
                </mxCell>
                <mxCell id="33" value="" style="endArrow=classic;html=1;exitX=0.5;exitY=1;exitDx=0;exitDy=0;entryX=0.5;entryY=0;entryDx=0;entryDy=0;" parent="1" source="177" target="179" edge="1">
                    <mxGeometry width="50" height="50" relative="1" as="geometry">
                        <mxPoint x="560" y="130.00000000000023" as="sourcePoint"/>
                        <mxPoint x="420" y="210" as="targetPoint"/>
                        <Array as="points"/>
                    </mxGeometry>
                </mxCell>
                <mxCell id="34" value="" style="endArrow=classic;html=1;entryX=0.5;entryY=0;entryDx=0;entryDy=0;exitX=1;exitY=0.5;exitDx=0;exitDy=0;" parent="1" source="179" target="31" edge="1">
                    <mxGeometry width="50" height="50" relative="1" as="geometry">
                        <mxPoint x="670" y="130.00000000000023" as="sourcePoint"/>
                        <mxPoint x="430" y="220" as="targetPoint"/>
                        <Array as="points"/>
                    </mxGeometry>
                </mxCell>
                <mxCell id="37" value="&lt;span&gt;投入したお金は使えるお金か&lt;/span&gt;" style="rhombus;whiteSpace=wrap;html=1;" parent="1" vertex="1">
                    <mxGeometry x="190" y="480" width="110" height="120" as="geometry"/>
                </mxCell>
                <mxCell id="38" value="投入金額をプラス" style="rounded=0;whiteSpace=wrap;html=1;" parent="1" vertex="1">
                    <mxGeometry x="185" y="640" width="120" height="60" as="geometry"/>
                </mxCell>
                <mxCell id="39" value="" style="endArrow=classic;html=1;exitX=0;exitY=0.5;exitDx=0;exitDy=0;" parent="1" source="37" target="7" edge="1">
                    <mxGeometry width="50" height="50" relative="1" as="geometry">
                        <mxPoint x="230" y="560" as="sourcePoint"/>
                        <mxPoint x="280" y="510" as="targetPoint"/>
                    </mxGeometry>
                </mxCell>
                <mxCell id="40" value="" style="endArrow=classic;html=1;exitX=0.5;exitY=0;exitDx=0;exitDy=0;entryX=0;entryY=0.5;entryDx=0;entryDy=0;" parent="1" source="7" target="2" edge="1">
                    <mxGeometry width="50" height="50" relative="1" as="geometry">
                        <mxPoint x="200" y="460" as="sourcePoint"/>
                        <mxPoint x="120" y="460" as="targetPoint"/>
                        <Array as="points">
                            <mxPoint x="-10" y="370"/>
                        </Array>
                    </mxGeometry>
                </mxCell>
                <mxCell id="41" value="" style="endArrow=classic;html=1;exitX=0.5;exitY=1;exitDx=0;exitDy=0;entryX=0.5;entryY=0;entryDx=0;entryDy=0;" parent="1" source="2" target="37" edge="1">
                    <mxGeometry width="50" height="50" relative="1" as="geometry">
                        <mxPoint y="520" as="sourcePoint"/>
                        <mxPoint x="380" y="360" as="targetPoint"/>
                    </mxGeometry>
                </mxCell>
                <mxCell id="43" value="もう１回お金いれるか？" style="rhombus;whiteSpace=wrap;html=1;" parent="1" vertex="1">
                    <mxGeometry x="205" y="760" width="80" height="80" as="geometry"/>
                </mxCell>
                <mxCell id="44" value="" style="endArrow=classic;html=1;exitX=1;exitY=0.5;exitDx=0;exitDy=0;entryX=0.75;entryY=1;entryDx=0;entryDy=0;" parent="1" source="43" target="2" edge="1">
                    <mxGeometry width="50" height="50" relative="1" as="geometry">
                        <mxPoint x="230" y="950" as="sourcePoint"/>
                        <mxPoint x="280" y="900" as="targetPoint"/>
                    </mxGeometry>
                </mxCell>
                <mxCell id="45" value="" style="endArrow=classic;html=1;exitX=0.5;exitY=1;exitDx=0;exitDy=0;" parent="1" source="37" target="38" edge="1">
                    <mxGeometry width="50" height="50" relative="1" as="geometry">
                        <mxPoint x="440" y="390" as="sourcePoint"/>
                        <mxPoint x="255" y="490" as="targetPoint"/>
                    </mxGeometry>
                </mxCell>
                <mxCell id="46" value="" style="endArrow=classic;html=1;exitX=0.5;exitY=1;exitDx=0;exitDy=0;entryX=0.5;entryY=0;entryDx=0;entryDy=0;" parent="1" source="38" target="43" edge="1">
                    <mxGeometry width="50" height="50" relative="1" as="geometry">
                        <mxPoint x="255" y="610" as="sourcePoint"/>
                        <mxPoint x="255" y="650" as="targetPoint"/>
                    </mxGeometry>
                </mxCell>
                <mxCell id="47" value="払い戻す？" style="rhombus;whiteSpace=wrap;html=1;" parent="1" vertex="1">
                    <mxGeometry x="195" y="870" width="105" height="100" as="geometry"/>
                </mxCell>
                <mxCell id="48" value="" style="endArrow=classic;html=1;exitX=0.5;exitY=1;exitDx=0;exitDy=0;entryX=0.5;entryY=0;entryDx=0;entryDy=0;" parent="1" source="43" target="47" edge="1">
                    <mxGeometry width="50" height="50" relative="1" as="geometry">
                        <mxPoint x="255" y="710" as="sourcePoint"/>
                        <mxPoint x="245" y="880" as="targetPoint"/>
                    </mxGeometry>
                </mxCell>
                <mxCell id="49" value="投入金額分、払い戻す" style="rounded=0;whiteSpace=wrap;html=1;" parent="1" vertex="1">
                    <mxGeometry x="-30" y="890" width="120" height="60" as="geometry"/>
                </mxCell>
                <mxCell id="50" value="" style="endArrow=classic;html=1;exitX=0;exitY=0.5;exitDx=0;exitDy=0;entryX=1;entryY=0.5;entryDx=0;entryDy=0;" parent="1" source="47" target="49" edge="1">
                    <mxGeometry width="50" height="50" relative="1" as="geometry">
                        <mxPoint x="255" y="850" as="sourcePoint"/>
                        <mxPoint x="257.5" y="880" as="targetPoint"/>
                    </mxGeometry>
                </mxCell>
                <mxCell id="51" value="" style="endArrow=classic;html=1;exitX=0;exitY=0.5;exitDx=0;exitDy=0;entryX=-0.012;entryY=0.567;entryDx=0;entryDy=0;entryPerimeter=0;" parent="1" source="49" target="23" edge="1">
                    <mxGeometry width="50" height="50" relative="1" as="geometry">
                        <mxPoint x="205" y="930" as="sourcePoint"/>
                        <mxPoint x="100" y="930" as="targetPoint"/>
                        <Array as="points">
                            <mxPoint x="-180" y="920"/>
                            <mxPoint x="-170" y="-330"/>
                        </Array>
                    </mxGeometry>
                </mxCell>
                <mxCell id="52" value="" style="endArrow=classic;html=1;exitX=0.5;exitY=1;exitDx=0;exitDy=0;" parent="1" source="47" edge="1">
                    <mxGeometry width="50" height="50" relative="1" as="geometry">
                        <mxPoint x="255" y="850" as="sourcePoint"/>
                        <mxPoint x="250" y="1020" as="targetPoint"/>
                    </mxGeometry>
                </mxCell>
                <mxCell id="54" value="投入金額 &amp;gt;=&lt;br&gt;販売価格がある？" style="rhombus;whiteSpace=wrap;html=1;" parent="1" vertex="1">
                    <mxGeometry x="180" y="1020" width="140" height="130" as="geometry"/>
                </mxCell>
                <mxCell id="55" value="在庫ある？" style="rhombus;whiteSpace=wrap;html=1;" parent="1" vertex="1">
                    <mxGeometry x="740" y="-200" width="80" height="80" as="geometry"/>
                </mxCell>
                <mxCell id="57" value="&#10;&#10;&lt;span style=&quot;color: rgb(240, 240, 240); font-family: helvetica; font-size: 12px; font-style: normal; font-weight: 400; letter-spacing: normal; text-align: center; text-indent: 0px; text-transform: none; word-spacing: 0px; background-color: rgb(42, 42, 42); display: inline; float: none;&quot;&gt;何かお求めですか？&lt;/span&gt;&#10;&#10;" style="rounded=1;whiteSpace=wrap;html=1;" parent="1" vertex="1">
                    <mxGeometry x="720" y="-380" width="120" height="40" as="geometry"/>
                </mxCell>
                <mxCell id="58" value="vendingmachine.rb" style="text;html=1;strokeColor=none;fillColor=none;align=center;verticalAlign=middle;whiteSpace=wrap;rounded=0;" parent="1" vertex="1">
                    <mxGeometry x="585" y="-540" width="110" height="20" as="geometry"/>
                </mxCell>
                <mxCell id="62" value="" style="endArrow=classic;html=1;exitX=0.5;exitY=1;exitDx=0;exitDy=0;entryX=0.5;entryY=0;entryDx=0;entryDy=0;" parent="1" source="23" target="57" edge="1">
                    <mxGeometry width="50" height="50" relative="1" as="geometry">
                        <mxPoint x="870" y="-180" as="sourcePoint"/>
                        <mxPoint x="920" y="-230" as="targetPoint"/>
                    </mxGeometry>
                </mxCell>
                <mxCell id="63" value="在庫がありません" style="rounded=0;whiteSpace=wrap;html=1;" parent="1" vertex="1">
                    <mxGeometry x="720" y="-90" width="120" height="60" as="geometry"/>
                </mxCell>
                <mxCell id="64" value="" style="endArrow=classic;html=1;exitX=0.5;exitY=1;exitDx=0;exitDy=0;entryX=0.5;entryY=0;entryDx=0;entryDy=0;" parent="1" source="55" target="63" edge="1">
                    <mxGeometry width="50" height="50" relative="1" as="geometry">
                        <mxPoint x="870" y="-180" as="sourcePoint"/>
                        <mxPoint x="920" y="-230" as="targetPoint"/>
                    </mxGeometry>
                </mxCell>
                <mxCell id="65" value="y/n&lt;br&gt;set_answer" style="rhombus;whiteSpace=wrap;html=1;" parent="1" vertex="1">
                    <mxGeometry x="740" y="-310" width="80" height="80" as="geometry"/>
                </mxCell>
                <mxCell id="66" value="" style="endArrow=classic;html=1;exitX=0.5;exitY=1;exitDx=0;exitDy=0;entryX=0.5;entryY=0;entryDx=0;entryDy=0;" parent="1" source="57" target="65" edge="1">
                    <mxGeometry width="50" height="50" relative="1" as="geometry">
                        <mxPoint x="870" y="-180" as="sourcePoint"/>
                        <mxPoint x="920" y="-230" as="targetPoint"/>
                    </mxGeometry>
                </mxCell>
                <mxCell id="67" value="" style="endArrow=classic;html=1;exitX=0.5;exitY=1;exitDx=0;exitDy=0;entryX=0.5;entryY=0;entryDx=0;entryDy=0;" parent="1" source="65" target="55" edge="1">
                    <mxGeometry width="50" height="50" relative="1" as="geometry">
                        <mxPoint x="790" y="-200" as="sourcePoint"/>
                        <mxPoint x="790" y="-180" as="targetPoint"/>
                    </mxGeometry>
                </mxCell>
                <mxCell id="69" value="ありがとうございました。" style="rounded=0;whiteSpace=wrap;html=1;" parent="1" vertex="1">
                    <mxGeometry x="960" y="-180" width="120" height="60" as="geometry"/>
                </mxCell>
                <mxCell id="70" value="" style="endArrow=classic;html=1;exitX=1;exitY=0.5;exitDx=0;exitDy=0;entryX=0;entryY=0.5;entryDx=0;entryDy=0;" parent="1" source="65" target="170" edge="1">
                    <mxGeometry width="50" height="50" relative="1" as="geometry">
                        <mxPoint x="820" y="-150" as="sourcePoint"/>
                        <mxPoint x="860" y="-270" as="targetPoint"/>
                    </mxGeometry>
                </mxCell>
                <mxCell id="71" value="" style="endArrow=classic;html=1;exitX=1;exitY=0.5;exitDx=0;exitDy=0;entryX=0;entryY=0.5;entryDx=0;entryDy=0;" parent="1" source="63" target="69" edge="1">
                    <mxGeometry width="50" height="50" relative="1" as="geometry">
                        <mxPoint x="830" y="-330" as="sourcePoint"/>
                        <mxPoint x="940" y="-330" as="targetPoint"/>
                    </mxGeometry>
                </mxCell>
                <mxCell id="72" value="終わり" style="ellipse;whiteSpace=wrap;html=1;" parent="1" vertex="1">
                    <mxGeometry x="965" y="-80" width="110" height="70" as="geometry"/>
                </mxCell>
                <mxCell id="73" value="" style="endArrow=classic;html=1;entryX=0.5;entryY=0;entryDx=0;entryDy=0;exitX=0.5;exitY=1;exitDx=0;exitDy=0;" parent="1" source="69" target="72" edge="1">
                    <mxGeometry width="50" height="50" relative="1" as="geometry">
                        <mxPoint x="830" y="-140" as="sourcePoint"/>
                        <mxPoint x="970" y="-150" as="targetPoint"/>
                    </mxGeometry>
                </mxCell>
                <mxCell id="74" value="" style="endArrow=classic;html=1;exitX=1;exitY=0.5;exitDx=0;exitDy=0;" parent="1" source="4" edge="1">
                    <mxGeometry width="50" height="50" relative="1" as="geometry">
                        <mxPoint x="340" y="1500" as="sourcePoint"/>
                        <mxPoint x="310" y="1530" as="targetPoint"/>
                    </mxGeometry>
                </mxCell>
                <mxCell id="76" style="edgeStyle=none;html=1;exitX=0.5;exitY=1;exitDx=0;exitDy=0;entryX=0.5;entryY=0;entryDx=0;entryDy=0;" parent="1" source="3" target="4" edge="1">
                    <mxGeometry relative="1" as="geometry">
                        <mxPoint x="257.5" y="1360" as="sourcePoint"/>
                        <mxPoint x="260" y="1410" as="targetPoint"/>
                    </mxGeometry>
                </mxCell>
                <mxCell id="77" value="自販機の売上があがる" style="rounded=0;whiteSpace=wrap;html=1;" parent="1" vertex="1">
                    <mxGeometry x="625" y="1440" width="120" height="60" as="geometry"/>
                </mxCell>
                <mxCell id="78" value="round += 1&lt;br&gt;return purchased_drink" style="shape=process;whiteSpace=wrap;html=1;backgroundOutline=1;" parent="1" vertex="1">
                    <mxGeometry x="40" y="1620" width="130" height="60" as="geometry"/>
                </mxCell>
                <mxCell id="79" value="" style="endArrow=classic;html=1;exitX=1;exitY=0.5;exitDx=0;exitDy=0;entryX=0;entryY=0.5;entryDx=0;entryDy=0;" parent="1" source="54" target="5" edge="1">
                    <mxGeometry width="50" height="50" relative="1" as="geometry">
                        <mxPoint x="257.5" y="980" as="sourcePoint"/>
                        <mxPoint x="260" y="1030" as="targetPoint"/>
                    </mxGeometry>
                </mxCell>
                <mxCell id="80" value="" style="endArrow=classic;html=1;exitX=0.5;exitY=0;exitDx=0;exitDy=0;entryX=1;entryY=1;entryDx=0;entryDy=0;" parent="1" source="5" target="43" edge="1">
                    <mxGeometry width="50" height="50" relative="1" as="geometry">
                        <mxPoint x="330" y="1095" as="sourcePoint"/>
                        <mxPoint x="437" y="1097.5" as="targetPoint"/>
                    </mxGeometry>
                </mxCell>
                <mxCell id="82" value="＠round = 1&lt;br&gt;slot_money = 0&lt;br&gt;drink_stock&lt;br&gt;drink_price&lt;br&gt;sales_amount&lt;br&gt;purchased_drink" style="text;html=1;strokeColor=none;fillColor=none;align=center;verticalAlign=middle;whiteSpace=wrap;rounded=0;" parent="1" vertex="1">
                    <mxGeometry x="-30" y="164.5" width="130" height="30" as="geometry"/>
                </mxCell>
                <mxCell id="83" value="&lt;span&gt;選択可能ドリンク表示&lt;/span&gt;&lt;br&gt;&lt;br&gt;&lt;span&gt;ドリンクの在庫 &amp;gt; 0&lt;/span&gt;&lt;br&gt;&lt;span&gt;||&lt;/span&gt;&lt;br&gt;&lt;span&gt;投入金額 &amp;gt;= 販売価格&lt;/span&gt;" style="rounded=0;whiteSpace=wrap;html=1;" parent="1" vertex="1">
                    <mxGeometry x="146.25" y="1210" width="202.5" height="100" as="geometry"/>
                </mxCell>
                <mxCell id="84" value="購入済みドリンクが増える" style="rounded=0;whiteSpace=wrap;html=1;" parent="1" vertex="1">
                    <mxGeometry x="630" y="1495" width="120" height="60" as="geometry"/>
                </mxCell>
                <mxCell id="85" style="edgeStyle=none;html=1;exitX=0.5;exitY=1;exitDx=0;exitDy=0;entryX=0.5;entryY=0;entryDx=0;entryDy=0;" parent="1" source="4" target="78" edge="1">
                    <mxGeometry relative="1" as="geometry">
                        <mxPoint x="260" y="1470" as="sourcePoint"/>
                        <mxPoint x="260" y="1510" as="targetPoint"/>
                    </mxGeometry>
                </mxCell>
                <mxCell id="92" value="" style="endArrow=classic;html=1;exitX=0.5;exitY=1;exitDx=0;exitDy=0;entryX=0.5;entryY=0;entryDx=0;entryDy=0;" parent="1" source="31" target="54" edge="1">
                    <mxGeometry width="50" height="50" relative="1" as="geometry">
                        <mxPoint x="755" y="250" as="sourcePoint"/>
                        <mxPoint x="440" y="330" as="targetPoint"/>
                        <Array as="points"/>
                    </mxGeometry>
                </mxCell>
                <mxCell id="93" value="[Drink]&lt;br&gt;@purchased_drink&lt;br&gt;@drink_list -&amp;gt;&amp;nbsp; Drink_stick.drink_stock, Drink_price.drink_price&lt;br&gt;&lt;br&gt;[Money]&lt;br&gt;@slot_money = 0&lt;br&gt;sales_amount -&amp;gt; Purchasing.sales_amount" style="text;html=1;strokeColor=none;fillColor=none;align=center;verticalAlign=middle;whiteSpace=wrap;rounded=0;" parent="1" vertex="1">
                    <mxGeometry x="877.5" y="-520" width="265" height="170" as="geometry"/>
                </mxCell>
                <mxCell id="94" value="Customer_process.rb" style="text;html=1;strokeColor=none;fillColor=none;align=center;verticalAlign=middle;whiteSpace=wrap;rounded=0;" parent="1" vertex="1">
                    <mxGeometry x="105" y="104.5" width="130" height="20" as="geometry"/>
                </mxCell>
                <mxCell id="95" value="Admin_process" style="text;html=1;strokeColor=none;fillColor=none;align=center;verticalAlign=middle;whiteSpace=wrap;rounded=0;" parent="1" vertex="1">
                    <mxGeometry x="1020" y="100" width="140" height="20" as="geometry"/>
                </mxCell>
                <mxCell id="91" style="edgeStyle=none;html=1;exitX=0;exitY=0.5;exitDx=0;exitDy=0;entryX=0;entryY=0.5;entryDx=0;entryDy=0;" parent="1" source="78" target="23" edge="1">
                    <mxGeometry relative="1" as="geometry">
                        <mxPoint x="220" y="1660" as="sourcePoint"/>
                        <mxPoint x="180" y="1660" as="targetPoint"/>
                        <Array as="points">
                            <mxPoint x="-270" y="1650"/>
                            <mxPoint x="-300" y="510"/>
                            <mxPoint x="-300" y="-450"/>
                        </Array>
                    </mxGeometry>
                </mxCell>
                <mxCell id="96" value="ストックの補充" style="rounded=0;whiteSpace=wrap;html=1;" parent="1" vertex="1">
                    <mxGeometry x="1070" y="430" width="130" height="40" as="geometry"/>
                </mxCell>
                <mxCell id="97" value="売上集金" style="rounded=0;whiteSpace=wrap;html=1;" parent="1" vertex="1">
                    <mxGeometry x="1245" y="430" width="130" height="40" as="geometry"/>
                </mxCell>
                <mxCell id="98" value="メニューの変更" style="rounded=0;whiteSpace=wrap;html=1;" parent="1" vertex="1">
                    <mxGeometry x="1600" y="430" width="180" height="40" as="geometry"/>
                </mxCell>
                <mxCell id="99" value="puts メンテナンスモード&lt;br&gt;何を行いますか？&lt;br&gt;&lt;br&gt;1.&amp;nbsp; ストックの補充&lt;br&gt;2. 売上金の集金&lt;br&gt;3. メニューの変更&lt;br&gt;4. メンテナンスモード終了" style="rounded=0;whiteSpace=wrap;html=1;" parent="1" vertex="1">
                    <mxGeometry x="1140" y="160" width="310" height="110" as="geometry"/>
                </mxCell>
                <mxCell id="100" value="1 / 2 / 3" style="rhombus;whiteSpace=wrap;html=1;" parent="1" vertex="1">
                    <mxGeometry x="1270" y="290" width="80" height="80" as="geometry"/>
                </mxCell>
                <mxCell id="101" value="" style="endArrow=classic;html=1;exitX=0;exitY=0.5;exitDx=0;exitDy=0;entryX=0.5;entryY=0;entryDx=0;entryDy=0;" parent="1" source="100" target="96" edge="1">
                    <mxGeometry width="50" height="50" relative="1" as="geometry">
                        <mxPoint x="1250" y="400" as="sourcePoint"/>
                        <mxPoint x="1300" y="350" as="targetPoint"/>
                        <Array as="points">
                            <mxPoint x="1135" y="330"/>
                        </Array>
                    </mxGeometry>
                </mxCell>
                <mxCell id="102" value="" style="endArrow=classic;html=1;exitX=0.5;exitY=1;exitDx=0;exitDy=0;entryX=0.5;entryY=0;entryDx=0;entryDy=0;" parent="1" source="100" target="97" edge="1">
                    <mxGeometry width="50" height="50" relative="1" as="geometry">
                        <mxPoint x="1250" y="400" as="sourcePoint"/>
                        <mxPoint x="1300" y="350" as="targetPoint"/>
                    </mxGeometry>
                </mxCell>
                <mxCell id="103" value="" style="endArrow=classic;html=1;exitX=0.925;exitY=0.45;exitDx=0;exitDy=0;entryX=0.5;entryY=0;entryDx=0;entryDy=0;exitPerimeter=0;" parent="1" source="100" target="98" edge="1">
                    <mxGeometry width="50" height="50" relative="1" as="geometry">
                        <mxPoint x="1320" y="380" as="sourcePoint"/>
                        <mxPoint x="1316" y="440" as="targetPoint"/>
                        <Array as="points">
                            <mxPoint x="1690" y="326"/>
                        </Array>
                    </mxGeometry>
                </mxCell>
                <mxCell id="104" value="" style="endArrow=classic;html=1;exitX=0.5;exitY=1;exitDx=0;exitDy=0;entryX=0.5;entryY=0;entryDx=0;entryDy=0;" parent="1" source="96" target="105" edge="1">
                    <mxGeometry width="50" height="50" relative="1" as="geometry">
                        <mxPoint x="1320" y="380" as="sourcePoint"/>
                        <mxPoint x="1320" y="440" as="targetPoint"/>
                    </mxGeometry>
                </mxCell>
                <mxCell id="105" value="何を補充しますか？&lt;br&gt;@drink_list" style="rounded=0;whiteSpace=wrap;html=1;" parent="1" vertex="1">
                    <mxGeometry x="1070" y="510" width="130" height="40" as="geometry"/>
                </mxCell>
                <mxCell id="106" value="いくつ補充しますか？&lt;br&gt;add_drink_stock" style="rounded=0;whiteSpace=wrap;html=1;" parent="1" vertex="1">
                    <mxGeometry x="1070" y="585" width="130" height="40" as="geometry"/>
                </mxCell>
                <mxCell id="107" value="" style="endArrow=classic;html=1;exitX=0.5;exitY=1;exitDx=0;exitDy=0;entryX=0.5;entryY=0;entryDx=0;entryDy=0;" parent="1" source="105" target="106" edge="1">
                    <mxGeometry width="50" height="50" relative="1" as="geometry">
                        <mxPoint x="1145" y="480" as="sourcePoint"/>
                        <mxPoint x="1145" y="520" as="targetPoint"/>
                    </mxGeometry>
                </mxCell>
                <mxCell id="108" value="" style="endArrow=classic;html=1;exitX=0.5;exitY=1;exitDx=0;exitDy=0;entryX=0.5;entryY=0;entryDx=0;entryDy=0;" parent="1" source="106" target="109" edge="1">
                    <mxGeometry width="50" height="50" relative="1" as="geometry">
                        <mxPoint x="1145" y="560" as="sourcePoint"/>
                        <mxPoint x="1145" y="595" as="targetPoint"/>
                    </mxGeometry>
                </mxCell>
                <mxCell id="109" value="もう一度ドリンクを補充しますか？" style="rhombus;whiteSpace=wrap;html=1;" parent="1" vertex="1">
                    <mxGeometry x="1077.5" y="660" width="115" height="110" as="geometry"/>
                </mxCell>
                <mxCell id="110" value="" style="endArrow=classic;html=1;exitX=1;exitY=0.5;exitDx=0;exitDy=0;entryX=1;entryY=0.5;entryDx=0;entryDy=0;" parent="1" source="109" target="105" edge="1">
                    <mxGeometry width="50" height="50" relative="1" as="geometry">
                        <mxPoint x="1300" y="580" as="sourcePoint"/>
                        <mxPoint x="1350" y="530" as="targetPoint"/>
                        <Array as="points">
                            <mxPoint x="1230" y="715"/>
                            <mxPoint x="1230" y="630"/>
                            <mxPoint x="1230" y="530"/>
                        </Array>
                    </mxGeometry>
                </mxCell>
                <mxCell id="111" value="" style="endArrow=classic;html=1;exitX=0;exitY=0.5;exitDx=0;exitDy=0;entryX=0;entryY=0.5;entryDx=0;entryDy=0;" parent="1" source="109" target="99" edge="1">
                    <mxGeometry width="50" height="50" relative="1" as="geometry">
                        <mxPoint x="1202.5" y="725" as="sourcePoint"/>
                        <mxPoint x="1210" y="540" as="targetPoint"/>
                        <Array as="points">
                            <mxPoint x="1040" y="715"/>
                            <mxPoint x="1040" y="540"/>
                            <mxPoint x="1040" y="215"/>
                        </Array>
                    </mxGeometry>
                </mxCell>
                <mxCell id="112" value="" style="endArrow=classic;html=1;entryX=0.5;entryY=0;entryDx=0;entryDy=0;" parent="1" source="99" target="100" edge="1">
                    <mxGeometry width="50" height="50" relative="1" as="geometry">
                        <mxPoint x="1320" y="380" as="sourcePoint"/>
                        <mxPoint x="1320" y="440" as="targetPoint"/>
                    </mxGeometry>
                </mxCell>
                <mxCell id="113" value="" style="endArrow=classic;html=1;exitX=1;exitY=0.5;exitDx=0;exitDy=0;entryX=0.75;entryY=0;entryDx=0;entryDy=0;" parent="1" source="99" target="23" edge="1">
                    <mxGeometry width="50" height="50" relative="1" as="geometry">
                        <mxPoint x="1316" y="280" as="sourcePoint"/>
                        <mxPoint x="1260" y="-310" as="targetPoint"/>
                        <Array as="points">
                            <mxPoint x="1540" y="215"/>
                            <mxPoint x="1520" y="-455"/>
                        </Array>
                    </mxGeometry>
                </mxCell>
                <mxCell id="114" value="現在の売上は@sales_amount円です。&lt;br&gt;@sales_amount" style="rounded=0;whiteSpace=wrap;html=1;" parent="1" vertex="1">
                    <mxGeometry x="1245" y="510" width="145" height="60" as="geometry"/>
                </mxCell>
                <mxCell id="115" value="売上を集金しますか？" style="rhombus;whiteSpace=wrap;html=1;" parent="1" vertex="1">
                    <mxGeometry x="1260" y="615" width="115" height="110" as="geometry"/>
                </mxCell>
                <mxCell id="116" value="" style="endArrow=classic;html=1;exitX=1;exitY=0.5;exitDx=0;exitDy=0;entryX=0.819;entryY=1;entryDx=0;entryDy=0;entryPerimeter=0;" parent="1" source="115" target="99" edge="1">
                    <mxGeometry width="50" height="50" relative="1" as="geometry">
                        <mxPoint x="1375" y="645" as="sourcePoint"/>
                        <mxPoint x="1410" y="271" as="targetPoint"/>
                        <Array as="points">
                            <mxPoint x="1400" y="670"/>
                            <mxPoint x="1400" y="460"/>
                        </Array>
                    </mxGeometry>
                </mxCell>
                <mxCell id="118" value="" style="endArrow=classic;html=1;exitX=0.5;exitY=1;exitDx=0;exitDy=0;entryX=0.5;entryY=0;entryDx=0;entryDy=0;" parent="1" source="114" target="115" edge="1">
                    <mxGeometry width="50" height="50" relative="1" as="geometry">
                        <mxPoint x="1320" y="480" as="sourcePoint"/>
                        <mxPoint x="1327.5" y="520" as="targetPoint"/>
                    </mxGeometry>
                </mxCell>
                <mxCell id="121" value="" style="endArrow=classic;html=1;exitX=0.5;exitY=1;exitDx=0;exitDy=0;entryX=0.5;entryY=0;entryDx=0;entryDy=0;" parent="1" source="97" target="114" edge="1">
                    <mxGeometry width="50" height="50" relative="1" as="geometry">
                        <mxPoint x="1270" y="550" as="sourcePoint"/>
                        <mxPoint x="1320" y="500" as="targetPoint"/>
                    </mxGeometry>
                </mxCell>
                <mxCell id="122" value="@sales_amount = 0" style="rounded=0;whiteSpace=wrap;html=1;" parent="1" vertex="1">
                    <mxGeometry x="1245" y="760" width="145" height="60" as="geometry"/>
                </mxCell>
                <mxCell id="123" value="" style="endArrow=classic;html=1;exitX=0.5;exitY=1;exitDx=0;exitDy=0;entryX=0.5;entryY=0;entryDx=0;entryDy=0;" parent="1" source="115" target="122" edge="1">
                    <mxGeometry width="50" height="50" relative="1" as="geometry">
                        <mxPoint x="1327.5" y="580" as="sourcePoint"/>
                        <mxPoint x="1327.5" y="625" as="targetPoint"/>
                    </mxGeometry>
                </mxCell>
                <mxCell id="124" value="" style="endArrow=classic;html=1;exitX=0;exitY=0.5;exitDx=0;exitDy=0;entryX=0;entryY=0.5;entryDx=0;entryDy=0;" parent="1" source="122" target="99" edge="1">
                    <mxGeometry width="50" height="50" relative="1" as="geometry">
                        <mxPoint x="1270" y="670" as="sourcePoint"/>
                        <mxPoint x="1320" y="620" as="targetPoint"/>
                        <Array as="points">
                            <mxPoint x="1020" y="790"/>
                            <mxPoint x="1020" y="215"/>
                        </Array>
                    </mxGeometry>
                </mxCell>
                <mxCell id="125" value="" style="endArrow=classic;html=1;exitX=0.5;exitY=1;exitDx=0;exitDy=0;entryX=0.5;entryY=0;entryDx=0;entryDy=0;" parent="1" source="98" target="126" edge="1">
                    <mxGeometry width="50" height="50" relative="1" as="geometry">
                        <mxPoint x="1320" y="380" as="sourcePoint"/>
                        <mxPoint x="1320" y="440" as="targetPoint"/>
                    </mxGeometry>
                </mxCell>
                <mxCell id="126" value="puts メニューの変更&lt;br&gt;何を行いますか？&lt;br&gt;&lt;br&gt;1. メニューの追加&lt;br&gt;2. メニューの削除&lt;br&gt;3. 価格の変更&lt;br&gt;&lt;br&gt;@menu_route_gets_chomp_to_i" style="rounded=0;whiteSpace=wrap;html=1;" parent="1" vertex="1">
                    <mxGeometry x="1625" y="505" width="130" height="120" as="geometry"/>
                </mxCell>
                <mxCell id="127" value="" style="endArrow=classic;html=1;exitX=0.5;exitY=1;exitDx=0;exitDy=0;entryX=0.5;entryY=0;entryDx=0;entryDy=0;" parent="1" source="126" target="128" edge="1">
                    <mxGeometry width="50" height="50" relative="1" as="geometry">
                        <mxPoint x="1370" y="540" as="sourcePoint"/>
                        <mxPoint x="1380" y="580" as="targetPoint"/>
                    </mxGeometry>
                </mxCell>
                <mxCell id="128" value="1 / (2 || 3)" style="rhombus;whiteSpace=wrap;html=1;" parent="1" vertex="1">
                    <mxGeometry x="1650" y="660" width="80" height="80" as="geometry"/>
                </mxCell>
                <mxCell id="129" value="" style="endArrow=classic;html=1;exitX=0;exitY=0.5;exitDx=0;exitDy=0;entryX=0.5;entryY=0;entryDx=0;entryDy=0;" parent="1" source="128" target="130" edge="1">
                    <mxGeometry width="50" height="50" relative="1" as="geometry">
                        <mxPoint x="1645" y="480" as="sourcePoint"/>
                        <mxPoint x="1645" y="515" as="targetPoint"/>
                        <Array as="points">
                            <mxPoint x="1535" y="700"/>
                        </Array>
                    </mxGeometry>
                </mxCell>
                <mxCell id="130" value="ドリンク名：&lt;br&gt;gets.chomp.to_sym" style="rounded=0;whiteSpace=wrap;html=1;" parent="1" vertex="1">
                    <mxGeometry x="1470" y="750" width="130" height="40" as="geometry"/>
                </mxCell>
                <mxCell id="131" value="価格：&lt;br&gt;gets.chomp.to_sym" style="rounded=0;whiteSpace=wrap;html=1;" parent="1" vertex="1">
                    <mxGeometry x="1470" y="820" width="130" height="40" as="geometry"/>
                </mxCell>
                <mxCell id="132" value="" style="endArrow=classic;html=1;exitX=0.5;exitY=1;exitDx=0;exitDy=0;entryX=0.5;entryY=0;entryDx=0;entryDy=0;" parent="1" source="130" target="131" edge="1">
                    <mxGeometry width="50" height="50" relative="1" as="geometry">
                        <mxPoint x="1645" y="635" as="sourcePoint"/>
                        <mxPoint x="1645" y="670" as="targetPoint"/>
                    </mxGeometry>
                </mxCell>
                <mxCell id="133" value="すぐにストックを補充しますか？" style="rounded=0;whiteSpace=wrap;html=1;" parent="1" vertex="1">
                    <mxGeometry x="1470" y="890" width="130" height="40" as="geometry"/>
                </mxCell>
                <mxCell id="134" value="" style="endArrow=classic;html=1;entryX=0.5;entryY=0;entryDx=0;entryDy=0;exitX=0.5;exitY=1;exitDx=0;exitDy=0;" parent="1" source="131" target="133" edge="1">
                    <mxGeometry width="50" height="50" relative="1" as="geometry">
                        <mxPoint x="1540" y="860" as="sourcePoint"/>
                        <mxPoint x="1545" y="830" as="targetPoint"/>
                    </mxGeometry>
                </mxCell>
                <mxCell id="135" value="メンテナンスモードを実行しますか？" style="rounded=1;whiteSpace=wrap;html=1;" parent="1" vertex="1">
                    <mxGeometry x="950" y="-290" width="120" height="40" as="geometry"/>
                </mxCell>
                <mxCell id="136" value="y/n&lt;br&gt;set_answer" style="rhombus;whiteSpace=wrap;html=1;" parent="1" vertex="1">
                    <mxGeometry x="1095" y="-310" width="80" height="80" as="geometry"/>
                </mxCell>
                <mxCell id="137" value="" style="endArrow=classic;html=1;entryX=0;entryY=0.5;entryDx=0;entryDy=0;exitX=1;exitY=0.5;exitDx=0;exitDy=0;" parent="1" source="135" target="136" edge="1">
                    <mxGeometry width="50" height="50" relative="1" as="geometry">
                        <mxPoint x="830" y="-260" as="sourcePoint"/>
                        <mxPoint x="900" y="-260" as="targetPoint"/>
                    </mxGeometry>
                </mxCell>
                <mxCell id="138" value="" style="endArrow=classic;html=1;exitX=0.5;exitY=1;exitDx=0;exitDy=0;entryX=0.5;entryY=0;entryDx=0;entryDy=0;" parent="1" source="136" target="69" edge="1">
                    <mxGeometry width="50" height="50" relative="1" as="geometry">
                        <mxPoint x="910" y="-150" as="sourcePoint"/>
                        <mxPoint x="960" y="-200" as="targetPoint"/>
                    </mxGeometry>
                </mxCell>
                <mxCell id="139" value="ドリンク名：&lt;br&gt;gets.chomp.to_sym" style="rounded=0;whiteSpace=wrap;html=1;" parent="1" vertex="1">
                    <mxGeometry x="1625" y="770" width="130" height="40" as="geometry"/>
                </mxCell>
                <mxCell id="140" value="" style="endArrow=classic;html=1;exitX=0.5;exitY=1;exitDx=0;exitDy=0;entryX=0.5;entryY=0;entryDx=0;entryDy=0;" parent="1" source="128" target="139" edge="1">
                    <mxGeometry width="50" height="50" relative="1" as="geometry">
                        <mxPoint x="1545" y="800" as="sourcePoint"/>
                        <mxPoint x="1545" y="830" as="targetPoint"/>
                    </mxGeometry>
                </mxCell>
                <mxCell id="141" value="" style="endArrow=classic;html=1;exitX=0.5;exitY=1;exitDx=0;exitDy=0;entryX=0.5;entryY=0;entryDx=0;entryDy=0;" parent="1" source="139" target="142" edge="1">
                    <mxGeometry width="50" height="50" relative="1" as="geometry">
                        <mxPoint x="1700" y="750" as="sourcePoint"/>
                        <mxPoint x="1700" y="780" as="targetPoint"/>
                    </mxGeometry>
                </mxCell>
                <mxCell id="142" value="puts このdrink_infoを削除しますか？" style="rounded=0;whiteSpace=wrap;html=1;" parent="1" vertex="1">
                    <mxGeometry x="1625" y="840" width="130" height="40" as="geometry"/>
                </mxCell>
                <mxCell id="143" value="y/n&lt;br&gt;set_answer" style="rhombus;whiteSpace=wrap;html=1;" parent="1" vertex="1">
                    <mxGeometry x="1645" y="910" width="90" height="90" as="geometry"/>
                </mxCell>
                <mxCell id="144" value="" style="endArrow=classic;html=1;exitX=0.5;exitY=1;exitDx=0;exitDy=0;entryX=0.5;entryY=0;entryDx=0;entryDy=0;" parent="1" source="142" target="143" edge="1">
                    <mxGeometry width="50" height="50" relative="1" as="geometry">
                        <mxPoint x="1700" y="820" as="sourcePoint"/>
                        <mxPoint x="1700" y="850" as="targetPoint"/>
                    </mxGeometry>
                </mxCell>
                <mxCell id="145" value="y/n&lt;br&gt;set_answer" style="rhombus;whiteSpace=wrap;html=1;" parent="1" vertex="1">
                    <mxGeometry x="1490" y="960" width="90" height="90" as="geometry"/>
                </mxCell>
                <mxCell id="146" value="" style="endArrow=classic;html=1;entryX=0.965;entryY=0.991;entryDx=0;entryDy=0;exitX=0;exitY=0.5;exitDx=0;exitDy=0;entryPerimeter=0;" parent="1" source="145" target="99" edge="1">
                    <mxGeometry width="50" height="50" relative="1" as="geometry">
                        <mxPoint x="1545" y="870" as="sourcePoint"/>
                        <mxPoint x="1545" y="900" as="targetPoint"/>
                        <Array as="points">
                            <mxPoint x="1440" y="1005"/>
                            <mxPoint x="1440" y="565"/>
                        </Array>
                    </mxGeometry>
                </mxCell>
                <mxCell id="147" value="" style="endArrow=classic;html=1;entryX=0.5;entryY=0;entryDx=0;entryDy=0;exitX=0.5;exitY=1;exitDx=0;exitDy=0;" parent="1" source="133" target="145" edge="1">
                    <mxGeometry width="50" height="50" relative="1" as="geometry">
                        <mxPoint x="1545" y="870" as="sourcePoint"/>
                        <mxPoint x="1545" y="900" as="targetPoint"/>
                    </mxGeometry>
                </mxCell>
                <mxCell id="148" value="" style="endArrow=classic;html=1;exitX=0.5;exitY=1;exitDx=0;exitDy=0;entryX=0.5;entryY=0;entryDx=0;entryDy=0;" parent="1" source="145" target="149" edge="1">
                    <mxGeometry width="50" height="50" relative="1" as="geometry">
                        <mxPoint x="1145" y="560" as="sourcePoint"/>
                        <mxPoint x="1145" y="595" as="targetPoint"/>
                    </mxGeometry>
                </mxCell>
                <mxCell id="149" value="いくつ補充しますか？" style="rounded=0;whiteSpace=wrap;html=1;" parent="1" vertex="1">
                    <mxGeometry x="1470" y="1080" width="130" height="40" as="geometry"/>
                </mxCell>
                <mxCell id="150" value="" style="endArrow=classic;html=1;entryX=0.5;entryY=0;entryDx=0;entryDy=0;exitX=0.5;exitY=1;exitDx=0;exitDy=0;" parent="1" source="149" target="151" edge="1">
                    <mxGeometry width="50" height="50" relative="1" as="geometry">
                        <mxPoint x="1545" y="1060" as="sourcePoint"/>
                        <mxPoint x="1545" y="1090" as="targetPoint"/>
                    </mxGeometry>
                </mxCell>
                <mxCell id="151" value="add_drink_stock" style="rounded=0;whiteSpace=wrap;html=1;" parent="1" vertex="1">
                    <mxGeometry x="1470" y="1150" width="130" height="40" as="geometry"/>
                </mxCell>
                <mxCell id="152" value="" style="endArrow=classic;html=1;entryX=0.968;entryY=1.009;entryDx=0;entryDy=0;exitX=0;exitY=0.5;exitDx=0;exitDy=0;entryPerimeter=0;" parent="1" source="151" target="99" edge="1">
                    <mxGeometry width="50" height="50" relative="1" as="geometry">
                        <mxPoint x="1500" y="1015" as="sourcePoint"/>
                        <mxPoint x="1449.15" y="279.0100000000002" as="targetPoint"/>
                        <Array as="points">
                            <mxPoint x="1440" y="1170"/>
                        </Array>
                    </mxGeometry>
                </mxCell>
                <mxCell id="154" value="" style="endArrow=classic;html=1;exitX=0.5;exitY=1;exitDx=0;exitDy=0;entryX=0.5;entryY=0;entryDx=0;entryDy=0;" parent="1" source="143" target="155" edge="1">
                    <mxGeometry width="50" height="50" relative="1" as="geometry">
                        <mxPoint x="1700" y="890" as="sourcePoint"/>
                        <mxPoint x="1690" y="1020" as="targetPoint"/>
                    </mxGeometry>
                </mxCell>
                <mxCell id="155" value="@answer = y&lt;br&gt;puts drink_infoを削除しました。&lt;br&gt;&lt;br&gt;@answer = n&lt;br&gt;puts drink_infoの削除をキャンセルしました。" style="rounded=0;whiteSpace=wrap;html=1;" parent="1" vertex="1">
                    <mxGeometry x="1625" y="1050" width="130" height="120" as="geometry"/>
                </mxCell>
                <mxCell id="156" value="" style="endArrow=classic;html=1;exitX=0.5;exitY=1;exitDx=0;exitDy=0;" parent="1" source="155" edge="1">
                    <mxGeometry width="50" height="50" relative="1" as="geometry">
                        <mxPoint x="1480" y="1180" as="sourcePoint"/>
                        <mxPoint x="1440" y="270" as="targetPoint"/>
                        <Array as="points">
                            <mxPoint x="1690" y="1250"/>
                            <mxPoint x="1440" y="1250"/>
                        </Array>
                    </mxGeometry>
                </mxCell>
                <mxCell id="157" value="" style="endArrow=classic;html=1;exitX=1;exitY=0.5;exitDx=0;exitDy=0;entryX=0.5;entryY=0;entryDx=0;entryDy=0;" parent="1" source="128" target="158" edge="1">
                    <mxGeometry width="50" height="50" relative="1" as="geometry">
                        <mxPoint x="1660" y="710" as="sourcePoint"/>
                        <mxPoint x="1545" y="760" as="targetPoint"/>
                        <Array as="points">
                            <mxPoint x="1865" y="700"/>
                        </Array>
                    </mxGeometry>
                </mxCell>
                <mxCell id="158" value="ドリンク名：&lt;br&gt;gets.chomp.to_sym" style="rounded=0;whiteSpace=wrap;html=1;" parent="1" vertex="1">
                    <mxGeometry x="1800" y="750" width="130" height="40" as="geometry"/>
                </mxCell>
                <mxCell id="161" value="" style="endArrow=classic;html=1;exitX=0.5;exitY=1;exitDx=0;exitDy=0;entryX=0.5;entryY=0;entryDx=0;entryDy=0;" parent="1" source="158" target="165" edge="1">
                    <mxGeometry width="50" height="50" relative="1" as="geometry">
                        <mxPoint x="1865" y="950" as="sourcePoint"/>
                        <mxPoint x="1865" y="830" as="targetPoint"/>
                        <Array as="points"/>
                    </mxGeometry>
                </mxCell>
                <mxCell id="165" value="puts このdrink_infoの新しい価格を入力してください&lt;br&gt;set_drink_price = gets_chomp_to_i" style="rounded=0;whiteSpace=wrap;html=1;" parent="1" vertex="1">
                    <mxGeometry x="1785" y="820" width="160" height="60" as="geometry"/>
                </mxCell>
                <mxCell id="166" value="" style="endArrow=classic;html=1;exitX=0.5;exitY=1;exitDx=0;exitDy=0;" parent="1" source="165" edge="1">
                    <mxGeometry width="50" height="50" relative="1" as="geometry">
                        <mxPoint x="1875" y="800" as="sourcePoint"/>
                        <mxPoint x="1865" y="910" as="targetPoint"/>
                        <Array as="points"/>
                    </mxGeometry>
                </mxCell>
                <mxCell id="167" value="drink_infoの価格をdrink_priceに変更しました。" style="rounded=0;whiteSpace=wrap;html=1;" parent="1" vertex="1">
                    <mxGeometry x="1800" y="910" width="130" height="50" as="geometry"/>
                </mxCell>
                <mxCell id="168" value="" style="endArrow=classic;html=1;exitX=0.5;exitY=1;exitDx=0;exitDy=0;" parent="1" source="167" edge="1">
                    <mxGeometry width="50" height="50" relative="1" as="geometry">
                        <mxPoint x="1875" y="890" as="sourcePoint"/>
                        <mxPoint x="1440" y="270" as="targetPoint"/>
                        <Array as="points">
                            <mxPoint x="1870" y="1250"/>
                            <mxPoint x="1440" y="1250"/>
                        </Array>
                    </mxGeometry>
                </mxCell>
                <mxCell id="169" value="&lt;br&gt;run()&lt;br&gt;get_current_status()&lt;br&gt;ask_anything_want()&lt;br&gt;set_answer()&lt;br&gt;" style="text;html=1;strokeColor=none;fillColor=none;align=center;verticalAlign=middle;whiteSpace=wrap;rounded=0;" vertex="1" parent="1">
                    <mxGeometry x="585" y="-410" width="130" height="110" as="geometry"/>
                </mxCell>
                <mxCell id="170" value="slot_money&lt;br&gt;.valid?" style="rhombus;whiteSpace=wrap;html=1;" vertex="1" parent="1">
                    <mxGeometry x="840" y="-310" width="80" height="80" as="geometry"/>
                </mxCell>
                <mxCell id="171" value="" style="endArrow=classic;html=1;exitX=1;exitY=0.5;exitDx=0;exitDy=0;entryX=0;entryY=0.5;entryDx=0;entryDy=0;" edge="1" parent="1" source="170" target="135">
                    <mxGeometry width="50" height="50" relative="1" as="geometry">
                        <mxPoint x="830" y="-260" as="sourcePoint"/>
                        <mxPoint x="845" y="-260" as="targetPoint"/>
                    </mxGeometry>
                </mxCell>
                <mxCell id="172" value="2週目？&lt;br&gt;if round &amp;gt; 1" style="rhombus;whiteSpace=wrap;html=1;" vertex="1" parent="1">
                    <mxGeometry x="565" y="-205" width="90" height="90" as="geometry"/>
                </mxCell>
                <mxCell id="173" value="" style="endArrow=classic;html=1;entryX=1;entryY=0.5;entryDx=0;entryDy=0;" edge="1" parent="1" target="172">
                    <mxGeometry width="50" height="50" relative="1" as="geometry">
                        <mxPoint x="740" y="-160" as="sourcePoint"/>
                        <mxPoint x="790" y="-190" as="targetPoint"/>
                    </mxGeometry>
                </mxCell>
                <mxCell id="174" value="customer_process = Cusctmer_process.new" style="rounded=0;whiteSpace=wrap;html=1;" vertex="1" parent="1">
                    <mxGeometry x="390" y="-40" width="170" height="70" as="geometry"/>
                </mxCell>
                <mxCell id="175" value="" style="endArrow=classic;html=1;entryX=1;entryY=0;entryDx=0;entryDy=0;exitX=0.5;exitY=1;exitDx=0;exitDy=0;" edge="1" parent="1" source="172" target="177">
                    <mxGeometry width="50" height="50" relative="1" as="geometry">
                        <mxPoint x="750" y="-150" as="sourcePoint"/>
                        <mxPoint x="665" y="-150" as="targetPoint"/>
                    </mxGeometry>
                </mxCell>
                <mxCell id="176" value="" style="endArrow=classic;html=1;entryX=0.5;entryY=0;entryDx=0;entryDy=0;exitX=0;exitY=0.5;exitDx=0;exitDy=0;" edge="1" parent="1" source="172" target="174">
                    <mxGeometry width="50" height="50" relative="1" as="geometry">
                        <mxPoint x="620" y="-105.00000000000023" as="sourcePoint"/>
                        <mxPoint x="620" y="-19.999999999999773" as="targetPoint"/>
                        <Array as="points">
                            <mxPoint x="475" y="-160"/>
                        </Array>
                    </mxGeometry>
                </mxCell>
                <mxCell id="177" value="customer_process.run" style="rounded=0;whiteSpace=wrap;html=1;" vertex="1" parent="1">
                    <mxGeometry x="390" y="110" width="170" height="70" as="geometry"/>
                </mxCell>
                <mxCell id="179" value="2週目？&lt;br&gt;if round &amp;gt; 1" style="rhombus;whiteSpace=wrap;html=1;" vertex="1" parent="1">
                    <mxGeometry x="360" y="220" width="90" height="90" as="geometry"/>
                </mxCell>
                <mxCell id="181" value="" style="endArrow=classic;html=1;exitX=0.5;exitY=1;exitDx=0;exitDy=0;entryX=0.5;entryY=0;entryDx=0;entryDy=0;" edge="1" parent="1" source="179" target="2">
                    <mxGeometry width="50" height="50" relative="1" as="geometry">
                        <mxPoint x="485" y="190.00000000000023" as="sourcePoint"/>
                        <mxPoint x="475" y="230.00000000000023" as="targetPoint"/>
                        <Array as="points"/>
                    </mxGeometry>
                </mxCell>
                <mxCell id="182" value="" style="endArrow=classic;html=1;exitX=0.5;exitY=1;exitDx=0;exitDy=0;" edge="1" parent="1" source="174">
                    <mxGeometry width="50" height="50" relative="1" as="geometry">
                        <mxPoint x="320" y="-30" as="sourcePoint"/>
                        <mxPoint x="480" y="110" as="targetPoint"/>
                    </mxGeometry>
                </mxCell>
            </root>
        </mxGraphModel>
    </diagram>
</mxfile>